<svg width="12" height="24" viewBox="0 0 12 24" fill="none" xmlns="http://www.w3.org/2000/svg">
<path d="M5.43538 3.645L1.83838 7.7565C1.41388 8.24025 1.75888 9 2.40313 9H9.59713C9.74131 9.00012 9.88248 8.95868 10.0037 8.88064C10.125 8.8026 10.2211 8.69127 10.2807 8.55998C10.3403 8.42869 10.3608 8.283 10.3397 8.14037C10.3186 7.99773 10.2569 7.8642 10.1619 7.75575L6.56488 3.64575C6.49448 3.56519 6.40767 3.50063 6.31026 3.45639C6.21286 3.41215 6.10711 3.38927 6.00013 3.38927C5.89315 3.38927 5.78741 3.41215 5.69 3.45639C5.59259 3.50063 5.50578 3.56519 5.43538 3.64575V3.645Z" fill="currentColor"/>
<path d="M5.43538 20.355L1.83838 16.2435C1.41388 15.7598 1.75888 15 2.40313 15H9.59713C9.74131 14.9999 9.88248 15.0413 10.0037 15.1194C10.125 15.1974 10.2211 15.3087 10.2807 15.44C10.3403 15.5713 10.3608 15.717 10.3397 15.8596C10.3186 16.0023 10.2569 16.1358 10.1619 16.2443L6.56488 20.3542C6.49448 20.4348 6.40767 20.4994 6.31026 20.5436C6.21286 20.5878 6.10711 20.6107 6.00013 20.6107C5.89315 20.6107 5.78741 20.5878 5.69 20.5436C5.59259 20.4994 5.50578 20.4348 5.43538 20.3542V20.355Z" fill="currentColor"/>
</svg>
