<svg width="24" height="24" viewBox="0 0 24 24" fill="none" xmlns="http://www.w3.org/2000/svg">
<mask id="path-1-inside-1_2003_41140" fill="white">
<path fill-rule="evenodd" clip-rule="evenodd" d="M3 6L21 6V8L3 8L3 6ZM3 11L21 11V13L3 13L3 11ZM21 16L3 16V18L21 18L21 16Z"/>
</mask>
<path fill-rule="evenodd" clip-rule="evenodd" d="M3 6L21 6V8L3 8L3 6ZM3 11L21 11V13L3 13L3 11ZM21 16L3 16V18L21 18L21 16Z" fill="currentColor"/>
<path d="M21 6H22V5L21 5V6ZM3 6L3 5H2L2 6H3ZM21 8V9H22V8L21 8ZM3 8H2V9H3L3 8ZM21 11H22V10H21V11ZM3 11V10H2V11H3ZM21 13V14H22V13H21ZM3 13H2L2 14H3L3 13ZM3 16V15H2L2 16H3ZM21 16H22V15H21V16ZM3 18H2L2 19H3V18ZM21 18V19H22V18H21ZM21 5L3 5L3 7L21 7V5ZM22 8V6H20V8L22 8ZM3 9L21 9V7L3 7L3 9ZM2 6L2 8H4V6H2ZM21 10L3 10L3 12L21 12V10ZM22 13V11H20V13H22ZM3 14L21 14V12L3 12L3 14ZM2 11V13H4V11H2ZM3 17L21 17V15L3 15L3 17ZM4 18V16H2V18H4ZM21 17L3 17L3 19L21 19L21 17ZM20 16L20 18H22L22 16H20Z" fill="currentColor" mask="url(#path-1-inside-1_2003_41140)"/>
</svg>
