<svg xmlns="http://www.w3.org/2000/svg" width="20" height="20" viewBox="0 0 20 20" fill="none">
    <path fill-rule="evenodd" clip-rule="evenodd" d="M12.9162 11.6667H12.2579L12.0245 11.4417C13.0245 10.275 13.5412 8.68337 13.2579 6.9917C12.8662 4.67503 10.9329 2.82503 8.59955 2.5417C5.07454 2.10837 2.10788 5.07503 2.54121 8.60003C2.82454 10.9334 4.67454 12.8667 6.99121 13.2584C8.68288 13.5417 10.2745 13.025 11.4412 12.025L11.6662 12.2584V12.9167L15.2079 16.4584C15.5495 16.8 16.1079 16.8 16.4495 16.4584C16.7912 16.1167 16.7912 15.5584 16.4495 15.2167L12.9162 11.6667ZM7.91621 11.6667C5.84121 11.6667 4.16621 9.9917 4.16621 7.9167C4.16621 5.8417 5.84121 4.1667 7.91621 4.1667C9.99121 4.1667 11.6662 5.8417 11.6662 7.9167C11.6662 9.9917 9.99121 11.6667 7.91621 11.6667Z" fill="currentColor"/>
</svg>