<svg width="28" height="28" viewBox="0 0 28 28" fill="none" xmlns="http://www.w3.org/2000/svg">
<path fill-rule="evenodd" clip-rule="evenodd" d="M14.1049 3.39495C11.7599 1.04995 8.24822 0.571613 5.42488 1.94828L9.65988 6.18328C10.1149 6.63828 10.1149 7.37328 9.65988 7.82828L7.80488 9.68328C7.34988 10.1499 6.61488 10.1499 6.15988 9.68328L1.92488 5.44828C0.559882 8.28328 1.03822 11.7716 3.38322 14.1166C5.55322 16.2866 8.72655 16.8583 11.4215 15.8433L20.7082 25.1299C21.9099 26.3316 23.8465 26.3316 25.0365 25.1299C26.2382 23.9283 26.2382 21.9916 25.0365 20.8016L15.7965 11.5499C16.8699 8.81995 16.3099 5.59995 14.1049 3.39495Z" fill="currentColor"/>
</svg>
