<svg width="28" height="28" viewBox="0 0 28 28" fill="none" xmlns="http://www.w3.org/2000/svg">
<path fill-rule="evenodd" clip-rule="evenodd" d="M23.333 15.1667H3.49967C2.85801 15.1667 2.33301 15.6917 2.33301 16.3333V23.3333C2.33301 23.975 2.85801 24.5 3.49967 24.5H23.333C23.9747 24.5 24.4997 23.975 24.4997 23.3333V16.3333C24.4997 15.6917 23.9747 15.1667 23.333 15.1667ZM23.333 3.5H3.49967C2.85801 3.5 2.33301 4.025 2.33301 4.66667V11.6667C2.33301 12.3083 2.85801 12.8333 3.49967 12.8333H23.333C23.9747 12.8333 24.4997 12.3083 24.4997 11.6667V4.66667C24.4997 4.025 23.9747 3.5 23.333 3.5Z" fill="currentColor"/>
</svg>
